# xmcd CD database file
#
# Track frame offsets:
#	150
#	8639
#	25800
#	46538
#	62663
#	82314
#	96789
#	113515
#	126806
#	142916
#	157316
#
# Disc length: 2383 seconds
#
# Revision: 0
# Processed by: cddbd v1.5.1PL0 Copyright (c) Steve Scherf et al.
# Submitted via: CDex 1.51
#
DISCID=84094d0b
DTITLE=メリー - モダンギャルド
DYEAR=1900
DGENRE=Rock
TTITLE0=流離ラプソディー
TTITLE1=ジャパニーズモダニスト
TTITLE2=恋哀交差点
TTITLE3=ハライソ
TTITLE4=躊躇いシャッフル
TTITLE5=青春ノイローゼ
TTITLE6=心切ループ
TTITLE7=T.O.P
TTITLE8=レスト　イン　ピース
TTITLE9=ロストジェネレーション
TTITLE10=黒い虹
EXTD=
EXTT0=
EXTT1=
EXTT2=
EXTT3=
EXTT4=
EXTT5=
EXTT6=
EXTT7=
EXTT8=
EXTT9=
EXTT10=
PLAYORDER=
